<svg xmlns="http://www.w3.org/2000/svg" xmlns:xlink="http://www.w3.org/1999/xlink" width="163.398" height="40" viewBox="0 0 163.398 40"><defs><style>.a,.g,.h,.i,.j,.k,.l{fill:#fff;}.b{fill:url(#a);}.c{fill:url(#b);}.d{fill:url(#c);}.e{fill:url(#d);}.f{fill:url(#e);}.g{opacity:0.1;}.h{opacity:0.2;}.i{opacity:0.3;}.j{opacity:0.35;}.k{opacity:0.75;}.l{opacity:0.05;}</style><linearGradient id="a" x1="0.517" y1="0.527" x2="0.203" y2="0.196" gradientUnits="objectBoundingBox"><stop offset="0" stop-color="#fff"/><stop offset="1" stop-color="#fff" stop-opacity="0"/></linearGradient><linearGradient id="b" x1="0.797" y1="0.806" x2="0.084" y2="0.087" xlink:href="#a"/><linearGradient id="c" x1="0.64" y1="0.362" x2="0.05" y2="0.937" xlink:href="#a"/><linearGradient id="d" x1="0.601" y1="0.417" x2="0.03" y2="0.969" gradientUnits="objectBoundingBox"><stop offset="0" stop-color="#fff" stop-opacity="0.973"/><stop offset="1" stop-color="#fff" stop-opacity="0"/></linearGradient><linearGradient id="e" x1="0.632" y1="0.517" x2="0" y2="0.514" gradientUnits="objectBoundingBox"><stop offset="0" stop-color="#fff"/><stop offset="1" stop-color="#fff2f2" stop-opacity="0"/></linearGradient></defs><g transform="translate(0 5.661)"><path class="a" d="M10.77,27.235A3.319,3.319,0,0,1,9.5,30a5.546,5.546,0,0,1-3.513,1,8.362,8.362,0,0,1-3.665-.7V28.261a9.982,9.982,0,0,0,1.918.667,8.111,8.111,0,0,0,1.892.243,3.025,3.025,0,0,0,1.892-.486,1.591,1.591,0,0,0,.609-1.309,1.634,1.634,0,0,0-.558-1.254A8.312,8.312,0,0,0,5.76,24.9a6.079,6.079,0,0,1-2.545-1.671,3.538,3.538,0,0,1-.739-2.258,3.156,3.156,0,0,1,1.174-2.6A4.878,4.878,0,0,1,6.8,17.43a9.233,9.233,0,0,1,3.774.83l-.685,1.762a8.261,8.261,0,0,0-3.143-.739,2.4,2.4,0,0,0-1.588.457,1.5,1.5,0,0,0-.54,1.2,1.689,1.689,0,0,0,.217.881,2.218,2.218,0,0,0,.714.692,11.971,11.971,0,0,0,1.787.859A9.876,9.876,0,0,1,9.468,24.5a3.293,3.293,0,0,1,.993,1.182A3.656,3.656,0,0,1,10.77,27.235Z" transform="translate(-2.32 -16.774)"/><path class="a" d="M32.963,31.362a5.113,5.113,0,0,0,1.551-.243v1.6a4.322,4.322,0,0,1-.906.257,6.273,6.273,0,0,1-1.149.105q-3.012,0-3.016-3.179V24.518H28.08v-.939l1.464-.776.721-2.113h1.309v2.222H34.42v1.606H31.574v5.347A1.488,1.488,0,0,0,31.959,31,1.4,1.4,0,0,0,32.963,31.362Z" transform="translate(-18.742 -18.852)"/><path class="a" d="M57.46,36.8l-.3-1.309h-.109A3,3,0,0,1,55.8,36.586a4.213,4.213,0,0,1-1.863.4,3.655,3.655,0,0,1-2.708-.9,3.746,3.746,0,0,1-.9-2.737V26.82h2.139v6.155a2.67,2.67,0,0,0,.468,1.718,1.8,1.8,0,0,0,1.472.573,2.345,2.345,0,0,0,1.965-.8A4.41,4.41,0,0,0,57,31.793V26.82h2.131V36.8Z" transform="translate(-32.927 -22.76)"/><path class="a" d="M84.5,29.844a3.472,3.472,0,0,1-2.914-1.356,6.094,6.094,0,0,1-1.048-3.8A6.089,6.089,0,0,1,81.6,20.865a3.514,3.514,0,0,1,2.94-1.367,3.445,3.445,0,0,1,3,1.454h.109a12.857,12.857,0,0,1-.152-1.7V15.62h2.131V29.667h-1.66l-.37-1.309h-.1A3.423,3.423,0,0,1,84.5,29.844Zm.569-1.715a2.3,2.3,0,0,0,1.9-.736A3.88,3.88,0,0,0,87.587,25v-.3a4.477,4.477,0,0,0-.613-2.682,2.278,2.278,0,0,0-1.921-.794,1.954,1.954,0,0,0-1.725.906,4.658,4.658,0,0,0-.605,2.585,4.525,4.525,0,0,0,.587,2.53A1.973,1.973,0,0,0,85.071,28.13Z" transform="translate(-52.186 -15.62)"/><path class="a" d="M109.01,26.82h2.313l2.03,5.658a10.65,10.65,0,0,1,.613,2.276h.073a9.4,9.4,0,0,1,.3-1.2q.217-.707,2.295-6.728h2.295l-4.27,11.31q-1.164,3.116-3.882,3.114a6.186,6.186,0,0,1-1.374-.152V39.417a4.94,4.94,0,0,0,1.091.109,2.237,2.237,0,0,0,2.157-1.78l.37-.939Z" transform="translate(-70.336 -22.76)"/><path class="a" d="M155.019,31.155H152.88V17.96h7.446v1.823h-5.307v4.125h4.973v1.834h-4.973Z" transform="translate(-98.303 -17.112)"/><path class="a" d="M181.945,36.666a4.834,4.834,0,0,1-3.643-1.359,5.151,5.151,0,0,1-1.312-3.741,5.666,5.666,0,0,1,1.218-3.846,4.212,4.212,0,0,1,3.349-1.4,4.113,4.113,0,0,1,3.125,1.2,4.587,4.587,0,0,1,1.145,3.3v1.145h-6.652a3.254,3.254,0,0,0,.787,2.233,2.728,2.728,0,0,0,2.084.779,7.6,7.6,0,0,0,1.646-.167,8.83,8.83,0,0,0,1.638-.555v1.725a6.492,6.492,0,0,1-1.57.522A9.15,9.15,0,0,1,181.945,36.666Zm-.388-8.736a2.129,2.129,0,0,0-1.62.642,3.046,3.046,0,0,0-.725,1.867h4.531a2.768,2.768,0,0,0-.594-1.874A2.046,2.046,0,0,0,181.557,27.929Z" transform="translate(-113.674 -22.441)"/><path class="a" d="M212.253,36.484l-.424-1.388h-.073a4.07,4.07,0,0,1-1.454,1.24,4.564,4.564,0,0,1-1.878.33,3.179,3.179,0,0,1-2.3-.794,2.972,2.972,0,0,1-.826-2.247,2.632,2.632,0,0,1,1.145-2.327,6.651,6.651,0,0,1,3.494-.859l1.725-.054v-.533a2.023,2.023,0,0,0-.446-1.432,1.825,1.825,0,0,0-1.385-.475,4.859,4.859,0,0,0-1.472.225,11.966,11.966,0,0,0-1.356.533l-.685-1.515a7.406,7.406,0,0,1,1.78-.645,8.116,8.116,0,0,1,1.823-.221,4.311,4.311,0,0,1,2.875.83,3.262,3.262,0,0,1,.971,2.61v6.724h-1.519ZM209.1,35.042a2.63,2.63,0,0,0,1.856-.645,2.335,2.335,0,0,0,.7-1.809v-.866l-1.283.054a4.381,4.381,0,0,0-2.179.5,1.524,1.524,0,0,0-.681,1.367,1.333,1.333,0,0,0,.4,1.033A1.7,1.7,0,0,0,209.1,35.042Z" transform="translate(-131.721 -22.441)"/><path class="a" d="M241.654,33.642a2.614,2.614,0,0,1-1.066,2.244,5.1,5.1,0,0,1-3.052.779,7.211,7.211,0,0,1-3.2-.605V34.226a7.892,7.892,0,0,0,3.277.812q1.957,0,1.957-1.182a.927.927,0,0,0-.217-.631,2.52,2.52,0,0,0-.714-.522,11.94,11.94,0,0,0-1.381-.613,6.394,6.394,0,0,1-2.334-1.338,2.472,2.472,0,0,1-.609-1.733,2.274,2.274,0,0,1,1.033-1.99,4.917,4.917,0,0,1,2.813-.71,7.974,7.974,0,0,1,3.331.714l-.685,1.6a7.39,7.39,0,0,0-2.719-.667q-1.68,0-1.678.957a.961.961,0,0,0,.439.794,9.562,9.562,0,0,0,1.91.9,8.8,8.8,0,0,1,1.8.877,2.438,2.438,0,0,1,1.1,2.153Z" transform="translate(-150.216 -22.441)"/><path class="a" d="M259.78,17.435a1.183,1.183,0,0,1,.312-.877,1.218,1.218,0,0,1,.888-.308,1.078,1.078,0,0,1,1.182,1.185,1.15,1.15,0,0,1-.312.852,1.177,1.177,0,0,1-.87.312,1.2,1.2,0,0,1-.888-.312A1.145,1.145,0,0,1,259.78,17.435Zm2.247,12.629h-2.121V20.082h2.121Z" transform="translate(-166.453 -16.022)"/><path class="a" d="M278.7,19.5a3.465,3.465,0,0,1,2.911,1.356,6.1,6.1,0,0,1,1.044,3.8,6.135,6.135,0,0,1-1.055,3.824,3.845,3.845,0,0,1-5.876,0h-.145l-.388,1.182H273.6V15.62h2.121v3.339c0,.246-.011.613-.036,1.1s-.043.8-.054.928h.091A3.359,3.359,0,0,1,278.7,19.5Zm-.551,1.733a2.146,2.146,0,0,0-1.845.754,4.4,4.4,0,0,0-.584,2.523v.145a4.674,4.674,0,0,0,.576,2.639,2.152,2.152,0,0,0,1.889.816,1.907,1.907,0,0,0,1.711-.9,4.74,4.74,0,0,0,.584-2.581Q280.471,21.233,278.146,21.231Z" transform="translate(-175.263 -15.62)"/><path class="a" d="M304.25,17.435a1.183,1.183,0,0,1,.312-.877,1.218,1.218,0,0,1,.888-.308,1.078,1.078,0,0,1,1.182,1.185,1.15,1.15,0,0,1-.312.852,1.177,1.177,0,0,1-.87.312,1.2,1.2,0,0,1-.888-.312A1.131,1.131,0,0,1,304.25,17.435ZM306.5,30.065h-2.121V20.082H306.5Z" transform="translate(-194.803 -16.022)"/><path class="a" d="M320.171,29.663H318.05V15.62h2.121Z" transform="translate(-203.6 -15.62)"/><path class="a" d="M331.16,17.435a1.183,1.183,0,0,1,.312-.877,1.218,1.218,0,0,1,.888-.308,1.078,1.078,0,0,1,1.182,1.185,1.15,1.15,0,0,1-.312.852,1.177,1.177,0,0,1-.87.312,1.2,1.2,0,0,1-.888-.312A1.13,1.13,0,0,1,331.16,17.435Zm2.247,12.629h-2.121V20.082h2.121Z" transform="translate(-211.958 -16.022)"/><path class="a" d="M346.633,31.362a5.113,5.113,0,0,0,1.551-.243v1.6a4.322,4.322,0,0,1-.906.257,6.272,6.272,0,0,1-1.149.105q-3.012,0-3.016-3.179V24.518H341.75v-.939l1.464-.776.721-2.113h1.309v2.222h2.842v1.606h-2.842v5.347A1.488,1.488,0,0,0,345.629,31,1.391,1.391,0,0,0,346.633,31.362Z" transform="translate(-218.709 -18.852)"/><path class="a" d="M360.06,26.82h2.313l2.03,5.658a10.651,10.651,0,0,1,.613,2.276h.073a9.4,9.4,0,0,1,.3-1.2q.218-.707,2.295-6.728h2.295l-4.27,11.31q-1.164,3.116-3.882,3.114a6.186,6.186,0,0,1-1.374-.152V39.417a4.939,4.939,0,0,0,1.091.109,2.237,2.237,0,0,0,2.157-1.78l.37-.939Z" transform="translate(-230.382 -22.76)"/></g><g transform="translate(0.942 30.129)"><path class="a" d="M4.92,91.517V84.51h.816v7H4.92Z" transform="translate(-4.92 -84.006)"/><path class="a" d="M15.3,94.43v-3.4a1.362,1.362,0,0,0-.294-.957,1.194,1.194,0,0,0-.913-.319,1.5,1.5,0,0,0-1.207.446,2.26,2.26,0,0,0-.384,1.472V94.43H11.71V89.178h.649l.13.718h.04a1.632,1.632,0,0,1,.685-.6,2.243,2.243,0,0,1,.982-.214,2,2,0,0,1,1.428.457A1.95,1.95,0,0,1,16.1,91v3.426h-.8Z" transform="translate(-9.249 -86.92)"/><path class="a" d="M29.014,85.995H27.676v4.633h-.8V85.995H25.94v-.359l.939-.286v-.294q0-1.936,1.693-1.936a3.588,3.588,0,0,1,.979.167l-.207.638a2.68,2.68,0,0,0-.787-.149.77.77,0,0,0-.667.3,1.659,1.659,0,0,0-.214.961v.341h1.338v.616Z" transform="translate(-18.32 -83.12)"/><path class="a" d="M40.645,91.8a2.915,2.915,0,0,1-.645,2,2.284,2.284,0,0,1-1.787.721,2.385,2.385,0,0,1-1.251-.33,2.2,2.2,0,0,1-.845-.95,3.271,3.271,0,0,1-.3-1.446,2.9,2.9,0,0,1,.642-2,2.269,2.269,0,0,1,1.783-.718A2.226,2.226,0,0,1,40,89.812,2.889,2.889,0,0,1,40.645,91.8Zm-4,0a2.494,2.494,0,0,0,.4,1.533,1.6,1.6,0,0,0,2.367,0,2.5,2.5,0,0,0,.406-1.537,2.435,2.435,0,0,0-.406-1.522,1.421,1.421,0,0,0-1.2-.522,1.391,1.391,0,0,0-1.178.515A2.5,2.5,0,0,0,36.646,91.8Z" transform="translate(-24.619 -86.92)"/><path class="a" d="M54.93,89.09a3,3,0,0,1,.627.058l-.112.739a2.776,2.776,0,0,0-.576-.073,1.409,1.409,0,0,0-1.091.518,1.891,1.891,0,0,0-.453,1.287v2.817H52.53V89.184h.656l.091.971h.04a2.312,2.312,0,0,1,.7-.79A1.616,1.616,0,0,1,54.93,89.09Z" transform="translate(-35.272 -86.926)"/><path class="a" d="M69.852,94.437V91.022a1.433,1.433,0,0,0-.268-.942,1.033,1.033,0,0,0-.834-.315,1.34,1.34,0,0,0-1.1.428A2.026,2.026,0,0,0,67.3,91.5v2.933H66.5V91.022a1.433,1.433,0,0,0-.268-.942,1.041,1.041,0,0,0-.837-.315,1.3,1.3,0,0,0-1.095.449,2.429,2.429,0,0,0-.348,1.468v2.755H63.16V89.184h.649l.13.718h.04a1.579,1.579,0,0,1,.634-.6,1.966,1.966,0,0,1,.917-.214,1.562,1.562,0,0,1,1.609.892h.04a1.668,1.668,0,0,1,.681-.652,2.109,2.109,0,0,1,1.015-.239,1.776,1.776,0,0,1,1.334.457,2.04,2.04,0,0,1,.442,1.464v3.426Z" transform="translate(-42.048 -86.926)"/><path class="a" d="M90.435,94.449l-.159-.747h-.04a2.175,2.175,0,0,1-.783.667,2.407,2.407,0,0,1-.975.174,1.758,1.758,0,0,1-1.225-.4A1.472,1.472,0,0,1,86.81,93c0-1.058.848-1.617,2.545-1.667l.892-.029v-.326a1.347,1.347,0,0,0-.265-.913,1.1,1.1,0,0,0-.852-.294,3.473,3.473,0,0,0-1.486.4l-.246-.609a3.748,3.748,0,0,1,.852-.33,3.683,3.683,0,0,1,.928-.12,1.991,1.991,0,0,1,1.392.417,1.749,1.749,0,0,1,.453,1.338v3.585Zm-1.794-.562a1.633,1.633,0,0,0,1.167-.406,1.51,1.51,0,0,0,.424-1.142v-.475l-.8.033a2.887,2.887,0,0,0-1.367.294.891.891,0,0,0-.42.812.818.818,0,0,0,.261.656A1.074,1.074,0,0,0,88.641,93.888Z" transform="translate(-57.126 -86.939)"/><path class="a" d="M113.9,86.551a1.96,1.96,0,0,1-.725,1.635,3.288,3.288,0,0,1-2.077.573h-.823v2.755h-.816v-7h1.816Q113.9,84.51,113.9,86.551Zm-3.629,1.512H111a2.7,2.7,0,0,0,1.566-.352,1.284,1.284,0,0,0,.482-1.12,1.2,1.2,0,0,0-.457-1.033,2.366,2.366,0,0,0-1.417-.341h-.91v2.846Z" transform="translate(-71.565 -84.006)"/><path class="a" d="M128.582,90.726v-3.4a1.362,1.362,0,0,0-.294-.957,1.194,1.194,0,0,0-.913-.319,1.5,1.5,0,0,0-1.211.453,2.286,2.286,0,0,0-.381,1.475v2.744h-.794V83.27h.794v2.258a4.876,4.876,0,0,1-.04.674h.047a1.59,1.59,0,0,1,.667-.594,2.183,2.183,0,0,1,.99-.217,2.037,2.037,0,0,1,1.446.457,1.934,1.934,0,0,1,.482,1.454v3.426Z" transform="translate(-81.466 -83.216)"/><path class="a" d="M143.7,94.449l-.16-.747h-.04a2.175,2.175,0,0,1-.783.667,2.407,2.407,0,0,1-.975.174,1.758,1.758,0,0,1-1.225-.4A1.472,1.472,0,0,1,140.08,93c0-1.058.848-1.617,2.545-1.667l.892-.029v-.326a1.347,1.347,0,0,0-.265-.913,1.1,1.1,0,0,0-.852-.294,3.473,3.473,0,0,0-1.486.4l-.246-.609a3.748,3.748,0,0,1,.852-.33,3.683,3.683,0,0,1,.928-.12,1.991,1.991,0,0,1,1.392.417,1.749,1.749,0,0,1,.453,1.338v3.585Zm-1.8-.562a1.633,1.633,0,0,0,1.167-.406,1.51,1.51,0,0,0,.424-1.142v-.475l-.8.033a2.887,2.887,0,0,0-1.367.294.891.891,0,0,0-.42.812.818.818,0,0,0,.261.656A1.087,1.087,0,0,0,141.907,93.888Z" transform="translate(-91.086 -86.939)"/><path class="a" d="M158.18,89.09a3,3,0,0,1,.627.058l-.112.739a2.776,2.776,0,0,0-.576-.073,1.409,1.409,0,0,0-1.091.518,1.891,1.891,0,0,0-.453,1.287v2.817h-.794V89.184h.656l.091.971h.04a2.312,2.312,0,0,1,.7-.79A1.608,1.608,0,0,1,158.18,89.09Z" transform="translate(-101.094 -86.926)"/><path class="a" d="M173.1,94.437V91.022a1.433,1.433,0,0,0-.268-.942,1.033,1.033,0,0,0-.834-.315,1.34,1.34,0,0,0-1.1.428,2.026,2.026,0,0,0-.355,1.312v2.933h-.794V91.022a1.433,1.433,0,0,0-.268-.942,1.042,1.042,0,0,0-.837-.315,1.3,1.3,0,0,0-1.095.449,2.429,2.429,0,0,0-.348,1.468v2.755h-.794V89.184h.649l.131.718h.04a1.579,1.579,0,0,1,.634-.6,1.966,1.966,0,0,1,.917-.214,1.562,1.562,0,0,1,1.609.892h.04a1.668,1.668,0,0,1,.681-.652,2.109,2.109,0,0,1,1.015-.239,1.776,1.776,0,0,1,1.334.457,2.04,2.04,0,0,1,.442,1.464v3.426Z" transform="translate(-107.871 -86.926)"/><path class="a" d="M193.685,94.449l-.16-.747h-.04a2.175,2.175,0,0,1-.783.667,2.407,2.407,0,0,1-.975.174,1.758,1.758,0,0,1-1.225-.4A1.472,1.472,0,0,1,190.06,93c0-1.058.848-1.617,2.545-1.667l.892-.029v-.326a1.347,1.347,0,0,0-.265-.913,1.1,1.1,0,0,0-.852-.294,3.473,3.473,0,0,0-1.486.4l-.246-.609a3.748,3.748,0,0,1,.852-.33,3.683,3.683,0,0,1,.928-.12,1.991,1.991,0,0,1,1.392.417,1.749,1.749,0,0,1,.453,1.338v3.585Zm-1.8-.562a1.633,1.633,0,0,0,1.167-.406,1.51,1.51,0,0,0,.424-1.142v-.475l-.8.033a2.887,2.887,0,0,0-1.367.294.891.891,0,0,0-.42.812.818.818,0,0,0,.261.656A1.087,1.087,0,0,0,191.887,93.888Z" transform="translate(-122.948 -86.939)"/><path class="a" d="M212.7,91.517V84.51h.816v7H212.7Z" transform="translate(-137.381 -84.006)"/><path class="a" d="M223.082,94.43v-3.4a1.362,1.362,0,0,0-.294-.957,1.194,1.194,0,0,0-.913-.319,1.5,1.5,0,0,0-1.207.446,2.26,2.26,0,0,0-.384,1.472V94.43h-.794V89.178h.649l.13.718h.04a1.632,1.632,0,0,1,.685-.6,2.243,2.243,0,0,1,.982-.214,2,2,0,0,1,1.428.457A1.95,1.95,0,0,1,223.883,91v3.426h-.8Z" transform="translate(-141.71 -86.92)"/><path class="a" d="M236.139,91.9a2.455,2.455,0,0,0,.406-.033,2.27,2.27,0,0,0,.312-.065v.609a1.475,1.475,0,0,1-.381.1,3.071,3.071,0,0,1-.453.04c-1.015,0-1.522-.533-1.522-1.606V87.827h-.75V87.45l.75-.33.337-1.12h.46v1.218h1.522v.616H235.3v3.092a1.075,1.075,0,0,0,.225.729A.785.785,0,0,0,236.139,91.9Z" transform="translate(-150.801 -84.956)"/><path class="a" d="M246.492,94.531a2.408,2.408,0,0,1-1.838-.71,2.736,2.736,0,0,1-.674-1.968,3.039,3.039,0,0,1,.624-2.015,2.079,2.079,0,0,1,1.678-.747,1.984,1.984,0,0,1,1.562.649,2.481,2.481,0,0,1,.576,1.711v.5H244.8a2.062,2.062,0,0,0,.468,1.4,1.617,1.617,0,0,0,1.247.478,4.257,4.257,0,0,0,1.678-.355v.71a4,4,0,0,1-.8.261A4.359,4.359,0,0,1,246.492,94.531Zm-.217-4.778a1.306,1.306,0,0,0-1.008.41,1.9,1.9,0,0,0-.442,1.142h2.744a1.749,1.749,0,0,0-.337-1.153A1.178,1.178,0,0,0,246.275,89.753Z" transform="translate(-157.323 -86.926)"/><path class="a" d="M260.334,90.726h-.794V83.27h.794Z" transform="translate(-167.242 -83.216)"/><path class="a" d="M266.754,90.726h-.794V83.27h.794Z" transform="translate(-171.335 -83.216)"/><path class="a" d="M272.18,84.506a.514.514,0,0,1,.134-.4.48.48,0,0,1,.337-.127.469.469,0,0,1,.33.13.518.518,0,0,1,.138.4.532.532,0,0,1-.138.4.491.491,0,0,1-.667,0A.545.545,0,0,1,272.18,84.506Zm.863,6.673h-.794V85.927h.794Z" transform="translate(-175.3 -83.668)"/><path class="a" d="M281.922,89.178v.5l-.971.116a1.6,1.6,0,0,1,.239.439,1.709,1.709,0,0,1,.105.613,1.554,1.554,0,0,1-.526,1.232,2.119,2.119,0,0,1-1.446.46,2.159,2.159,0,0,1-.442-.04.79.79,0,0,0-.507.678.34.34,0,0,0,.178.319,1.306,1.306,0,0,0,.609.1h.928a2.094,2.094,0,0,1,1.312.359A1.248,1.248,0,0,1,281.856,95a1.5,1.5,0,0,1-.7,1.33,3.749,3.749,0,0,1-2.041.457,2.762,2.762,0,0,1-1.588-.384,1.233,1.233,0,0,1-.558-1.084,1.215,1.215,0,0,1,.308-.83,1.557,1.557,0,0,1,.863-.475.842.842,0,0,1-.337-.283.748.748,0,0,1-.138-.446.854.854,0,0,1,.152-.5,1.664,1.664,0,0,1,.482-.417,1.415,1.415,0,0,1-.663-.569,1.684,1.684,0,0,1-.257-.921,1.7,1.7,0,0,1,.518-1.33,2.112,2.112,0,0,1,1.468-.468,2.778,2.778,0,0,1,.743.094h1.812Zm-4.187,6.133a.72.72,0,0,0,.359.649,2,2,0,0,0,1.029.221,2.834,2.834,0,0,0,1.483-.3.915.915,0,0,0,.482-.812.638.638,0,0,0-.265-.591,2.019,2.019,0,0,0-.993-.167h-.953a1.252,1.252,0,0,0-.845.257A.937.937,0,0,0,277.735,95.311Zm.431-4.451a1.075,1.075,0,0,0,.312.834,1.241,1.241,0,0,0,.866.283,1.014,1.014,0,0,0,1.164-1.131,1.044,1.044,0,0,0-1.178-1.185,1.178,1.178,0,0,0-.863.3A1.235,1.235,0,0,0,278.166,90.86Z" transform="translate(-178.354 -86.92)"/><path class="a" d="M294.882,94.531a2.408,2.408,0,0,1-1.838-.71,2.736,2.736,0,0,1-.674-1.968,3.039,3.039,0,0,1,.623-2.015,2.079,2.079,0,0,1,1.678-.747,1.985,1.985,0,0,1,1.562.649,2.481,2.481,0,0,1,.576,1.711v.5h-3.618a2.062,2.062,0,0,0,.468,1.4,1.617,1.617,0,0,0,1.247.478,4.257,4.257,0,0,0,1.678-.355v.71a4,4,0,0,1-.8.261A4.359,4.359,0,0,1,294.882,94.531Zm-.217-4.778a1.306,1.306,0,0,0-1.008.41,1.9,1.9,0,0,0-.442,1.142h2.744a1.749,1.749,0,0,0-.337-1.153A1.178,1.178,0,0,0,294.665,89.753Z" transform="translate(-188.172 -86.926)"/><path class="a" d="M311.522,94.43v-3.4a1.362,1.362,0,0,0-.294-.957,1.194,1.194,0,0,0-.913-.319,1.5,1.5,0,0,0-1.207.446,2.26,2.26,0,0,0-.384,1.472V94.43h-.794V89.178h.649l.13.718h.04a1.632,1.632,0,0,1,.685-.6,2.244,2.244,0,0,1,.982-.214,2,2,0,0,1,1.428.457A1.95,1.95,0,0,1,312.323,91v3.426h-.8Z" transform="translate(-198.091 -86.92)"/><path class="a" d="M325.7,94.525a2.241,2.241,0,0,1-1.765-.7,2.888,2.888,0,0,1-.623-1.986,2.975,2.975,0,0,1,.634-2.037,2.288,2.288,0,0,1,1.809-.718,3.843,3.843,0,0,1,.758.08,2.6,2.6,0,0,1,.594.192l-.246.678a3.479,3.479,0,0,0-.576-.174,2.508,2.508,0,0,0-.551-.069c-1.066,0-1.6.678-1.6,2.041a2.453,2.453,0,0,0,.388,1.486,1.36,1.36,0,0,0,1.156.518,3.545,3.545,0,0,0,1.348-.283v.7A2.881,2.881,0,0,1,325.7,94.525Z" transform="translate(-207.896 -86.92)"/><path class="a" d="M338.262,94.531a2.408,2.408,0,0,1-1.838-.71,2.736,2.736,0,0,1-.674-1.968,3.039,3.039,0,0,1,.623-2.015,2.079,2.079,0,0,1,1.678-.747,1.985,1.985,0,0,1,1.562.649,2.481,2.481,0,0,1,.576,1.711v.5h-3.618a2.062,2.062,0,0,0,.468,1.4,1.617,1.617,0,0,0,1.247.478,4.257,4.257,0,0,0,1.678-.355v.71a4,4,0,0,1-.8.261A4.311,4.311,0,0,1,338.262,94.531Zm-.214-4.778a1.306,1.306,0,0,0-1.008.41A1.9,1.9,0,0,0,336.6,91.3h2.744a1.749,1.749,0,0,0-.337-1.153A1.188,1.188,0,0,0,338.048,89.753Z" transform="translate(-215.827 -86.926)"/></g><g transform="translate(145.111)"><path class="b" d="M414.21,22.969a.669.669,0,0,1-.431-.159l-10.907-9.363a.663.663,0,1,1,.863-1.008L414.641,21.8a.663.663,0,0,1-.431,1.167Z" transform="translate(-402.638 -7.828)"/><path class="c" d="M415.868,10.431a.78.78,0,0,1-.5-.185L404.994,1.368A.776.776,0,0,1,406,.19l10.371,8.874a.776.776,0,0,1,.083,1.095A.765.765,0,0,1,415.868,10.431Z" transform="translate(-403.967 -0.003)"/><path class="d" d="M405.581,58.5a.785.785,0,0,1-.591-.268.776.776,0,0,1,.083-1.095L417.228,46.67a.776.776,0,1,1,1.011,1.178L406.085,58.313A.765.765,0,0,1,405.581,58.5Z" transform="translate(-404.018 -29.634)"/><path class="e" d="M415.262,45.058a.663.663,0,0,1-.431-1.167l6.572-5.622a.663.663,0,0,1,.863,1.008L415.694,44.9A.657.657,0,0,1,415.262,45.058Z" transform="translate(-410.263 -24.295)"/><path class="f" d="M404.284,36.442a.524.524,0,0,1-.341-.924l4.422-3.737-4.444-3.719a.525.525,0,0,1,.674-.8l4.923,4.118a.52.52,0,0,1,.188.4.534.534,0,0,1-.185.4l-4.9,4.14A.51.51,0,0,1,404.284,36.442Z" transform="translate(-403.337 -17.299)"/><path class="g" d="M422.59,15.927a.777.777,0,0,1,.91-.631h0a.781.781,0,0,1,.631.91h0a.786.786,0,0,1-.91.631h0a.8.8,0,0,1-.37-.178h0A.794.794,0,0,1,422.59,15.927Z" transform="translate(-415.351 -9.744)"/><path class="h" d="M417.351,11.457a.778.778,0,0,1,.91-.631h0a.781.781,0,0,1,.631.91h0a.786.786,0,0,1-.91.631h0a.8.8,0,0,1-.37-.178h0A.8.8,0,0,1,417.351,11.457Z" transform="translate(-412.011 -6.894)"/><path class="i" d="M412.118,6.987a.777.777,0,0,1,.91-.631h0a.781.781,0,0,1,.631.91h0a.786.786,0,0,1-.91.631h0a.8.8,0,0,1-.37-.178h0A.783.783,0,0,1,412.118,6.987Z" transform="translate(-408.674 -4.045)"/><path class="j" d="M406.88,2.517a.778.778,0,0,1,.91-.631h0a.781.781,0,0,1,.631.91h0a.786.786,0,0,1-.91.631h0a.8.8,0,0,1-.37-.178h0A.791.791,0,0,1,406.88,2.517Z" transform="translate(-405.336 -1.195)"/><path class="k" d="M443.54,33.8a.777.777,0,0,1,.91-.631h0a.781.781,0,0,1,.631.91h0a.786.786,0,0,1-.91.631h0a.8.8,0,0,1-.37-.178h0A.791.791,0,0,1,443.54,33.8Z" transform="translate(-428.707 -21.136)"/><path class="k" d="M438.3,29.327a.778.778,0,0,1,.91-.631h0a.781.781,0,0,1,.631.91h0a.786.786,0,0,1-.91.631h0a.8.8,0,0,1-.37-.178h0A.8.8,0,0,1,438.3,29.327Z" transform="translate(-425.366 -18.287)"/><path class="g" d="M433.328,25.117a.778.778,0,0,1,.91-.631h0a.781.781,0,0,1,.631.91h0a.786.786,0,0,1-.91.631h0a.8.8,0,0,1-.37-.178h0A.783.783,0,0,1,433.328,25.117Z" transform="translate(-422.195 -15.603)"/><path class="g" d="M427.83,20.4a.778.778,0,0,1,.91-.631h0a.781.781,0,0,1,.631.91h0a.786.786,0,0,1-.91.631h0a.8.8,0,0,1-.37-.178h0A.8.8,0,0,1,427.83,20.4Z" transform="translate(-418.691 -12.594)"/><path class="k" d="M443.815,42.176h0a.768.768,0,0,1,.37-.178h0a.78.78,0,0,1,.91.627h0a.776.776,0,0,1-.627.91h0a.781.781,0,0,1-.652-1.359Z" transform="translate(-428.717 -26.767)"/><path class="g" d="M438.6,46.656h0a.768.768,0,0,1,.37-.178h0a.78.78,0,0,1,.91.627h0a.776.776,0,0,1-.627.91h0a.781.781,0,0,1-.652-1.359Z" transform="translate(-425.389 -29.623)"/><path class="g" d="M433.366,51.136h0a.768.768,0,0,1,.37-.178h0a.78.78,0,0,1,.91.627h0a.776.776,0,0,1-.627.91h0a.774.774,0,0,1-.91-.627A.792.792,0,0,1,433.366,51.136Z" transform="translate(-422.055 -32.479)"/><path class="g" d="M428.145,55.626h0a.768.768,0,0,1,.37-.178h0a.78.78,0,0,1,.91.627h0a.776.776,0,0,1-.627.91h0a.781.781,0,0,1-.652-1.359Z" transform="translate(-418.727 -35.342)"/><path class="g" d="M422.916,60.106h0a.768.768,0,0,1,.37-.178h0a.78.78,0,0,1,.91.627h0a.776.776,0,0,1-.627.91h0a.774.774,0,0,1-.91-.627A.789.789,0,0,1,422.916,60.106Z" transform="translate(-415.393 -38.198)"/><path class="g" d="M417.7,64.6h0a.767.767,0,0,1,.37-.178h0a.78.78,0,0,1,.91.627h0a.776.776,0,0,1-.627.91h0A.781.781,0,0,1,417.7,64.6Z" transform="translate(-412.065 -41.06)"/><path class="j" d="M412.473,69.076h0a.768.768,0,0,1,.37-.178h0a.78.78,0,0,1,.91.627h0a.776.776,0,0,1-.627.91h0a.781.781,0,0,1-.652-1.359Z" transform="translate(-408.735 -43.916)"/><path class="j" d="M407.245,73.556h0a.768.768,0,0,1,.37-.178h0a.78.78,0,0,1,.91.627h0a.776.776,0,0,1-.627.91h0a.774.774,0,0,1-.91-.627A.784.784,0,0,1,407.245,73.556Z" transform="translate(-405.403 -46.772)"/><path class="a" d="M448.78,38.267a.778.778,0,0,1,.91-.631h0a.781.781,0,0,1,.631.91h0a.786.786,0,0,1-.91.631h0a.8.8,0,0,1-.37-.178h0A.791.791,0,0,1,448.78,38.267Z" transform="translate(-432.047 -23.986)"/><path class="g" d="M432.769,39.006a.67.67,0,0,1,.381-.866h0a.661.661,0,0,1,.859.381h0a.672.672,0,0,1-.381.866h0a.684.684,0,0,1-.257.04h0A.665.665,0,0,1,432.769,39.006Z" transform="translate(-421.818 -24.286)"/><path class="g" d="M426.739,33.836a.67.67,0,0,1,.381-.866h0a.661.661,0,0,1,.859.381h0a.672.672,0,0,1-.381.866h0a.684.684,0,0,1-.257.04h0A.667.667,0,0,1,426.739,33.836Z" transform="translate(-417.974 -20.99)"/><path class="g" d="M420.7,28.646a.67.67,0,0,1,.381-.866h0a.661.661,0,0,1,.859.381h0a.672.672,0,0,1-.381.866h0a.684.684,0,0,1-.257.04h0A.658.658,0,0,1,420.7,28.646Z" transform="translate(-414.123 -17.681)"/><path class="g" d="M414.719,23.366a.67.67,0,0,1,.381-.866h0a.661.661,0,0,1,.859.381h0a.672.672,0,0,1-.381.866h0a.684.684,0,0,1-.257.04h0A.662.662,0,0,1,414.719,23.366Z" transform="translate(-410.311 -14.315)"/><path class="j" d="M402.689,13.176a.67.67,0,0,1,.381-.866h0a.661.661,0,0,1,.859.381h0a.672.672,0,0,1-.381.866h0a.684.684,0,0,1-.257.04h0A.658.658,0,0,1,402.689,13.176Z" transform="translate(-402.642 -7.819)"/><path class="g" d="M421.371,48.429h0a.7.7,0,0,1,.257.04h0a.666.666,0,0,1,.381.863h0a.661.661,0,0,1-.859.381h0a.665.665,0,0,1-.381-.863A.675.675,0,0,1,421.371,48.429Z" transform="translate(-414.168 -30.875)"/><path class="l" d="M415.361,53.549h0a.7.7,0,0,1,.257.04h0a.666.666,0,0,1,.381.863h0a.661.661,0,0,1-.859.381h0a.664.664,0,0,1,.221-1.283Z" transform="translate(-410.336 -34.139)"/><path class="j" d="M409.361,58.659h0a.7.7,0,0,1,.257.04h0a.666.666,0,0,1,.381.863h0a.661.661,0,0,1-.859.381h0a.665.665,0,0,1-.381-.863A.673.673,0,0,1,409.361,58.659Z" transform="translate(-406.511 -37.396)"/><path class="j" d="M403.361,63.769h0a.7.7,0,0,1,.257.04h0a.666.666,0,0,1,.381.863h0a.661.661,0,0,1-.859.381h0a.665.665,0,0,1-.381-.863A.673.673,0,0,1,403.361,63.769Z" transform="translate(-402.686 -40.654)"/><path class="g" d="M417.644,39.531h0a.528.528,0,0,1-.341-.667h0a.531.531,0,0,1,.671-.341h0l0,0h0a.531.531,0,0,1,.341.671h0a.527.527,0,0,1-.507.37h0A.821.821,0,0,1,417.644,39.531Z" transform="translate(-411.97 -24.543)"/><path class="g" d="M410.884,33.851h0a.528.528,0,0,1-.341-.667h0a.531.531,0,0,1,.671-.341h0l0,0h0a.531.531,0,0,1,.341.671h0a.527.527,0,0,1-.507.37h0A.82.82,0,0,1,410.884,33.851Z" transform="translate(-407.661 -20.922)"/><path class="l" d="M404.124,28.171h0a.528.528,0,0,1-.341-.667h0a.531.531,0,0,1,.671-.341h0l0,0h0a.531.531,0,0,1,.341.671h0a.527.527,0,0,1-.507.37h0A.774.774,0,0,1,404.124,28.171Z" transform="translate(-403.351 -17.301)"/><path class="g" d="M411.051,44.2h0a.517.517,0,0,1,.507.366h0a.533.533,0,0,1-.337.674h0l0,0h0a.533.533,0,0,1-.674-.337h0a.526.526,0,0,1,.337-.667h0A.451.451,0,0,1,411.051,44.2Z" transform="translate(-407.665 -28.179)"/><path class="l" d="M404.311,49.9h0a.516.516,0,0,1,.507.366h0a.533.533,0,0,1-.337.674h0l0,0h0a.533.533,0,0,1-.674-.337h0a.526.526,0,0,1,.337-.667h0A.436.436,0,0,1,404.311,49.9Z" transform="translate(-403.368 -31.813)"/><path class="g" d="M427.371,43.319h0a.7.7,0,0,1,.257.04h0a.666.666,0,0,1,.381.863h0a.661.661,0,0,1-.859.381h0a.664.664,0,0,1,.221-1.283Z" transform="translate(-417.993 -27.617)"/><path class="j" d="M408.7,18.276a.67.67,0,0,1,.381-.866h0a.661.661,0,0,1,.859.381h0a.672.672,0,0,1-.381.866h0a.684.684,0,0,1-.257.04h0A.671.671,0,0,1,408.7,18.276Z" transform="translate(-406.473 -11.07)"/></g></svg>